<mxfile host="Electron" agent="Mozilla/5.0 (Windows NT 10.0; Win64; x64) AppleWebKit/537.36 (KHTML, like Gecko) draw.io/28.0.6 Chrome/138.0.7204.100 Electron/37.2.3 Safari/537.36" version="28.0.6">
  <diagram name="Seite-1" id="hcaG8pIky56IJ6p-k1hJ">
    <mxGraphModel dx="623" dy="2808" grid="1" gridSize="10" guides="1" tooltips="1" connect="1" arrows="1" fold="1" page="1" pageScale="1" pageWidth="827" pageHeight="1169" math="0" shadow="0">
      <root>
        <mxCell id="0" />
        <mxCell id="1" parent="0" />
        <mxCell id="GNJ3JSqXb4C92IdO4Sq5-56" style="edgeStyle=orthogonalEdgeStyle;shape=connector;curved=0;rounded=1;orthogonalLoop=1;jettySize=auto;html=1;entryX=0;entryY=0.5;entryDx=0;entryDy=0;strokeColor=default;align=center;verticalAlign=middle;fontFamily=Helvetica;fontSize=11;fontColor=default;labelBackgroundColor=default;endArrow=none;endFill=0;" edge="1" parent="1" source="GNJ3JSqXb4C92IdO4Sq5-48" target="GNJ3JSqXb4C92IdO4Sq5-47">
          <mxGeometry relative="1" as="geometry" />
        </mxCell>
        <mxCell id="GNJ3JSqXb4C92IdO4Sq5-48" value="M2" style="rounded=1;whiteSpace=wrap;html=1;fontFamily=Helvetica;fontSize=11;fontColor=default;labelBackgroundColor=default;verticalAlign=bottom;" vertex="1" parent="1">
          <mxGeometry x="420" y="-1949.5" width="80" height="49.5" as="geometry" />
        </mxCell>
        <mxCell id="GNJ3JSqXb4C92IdO4Sq5-47" value="M3" style="rounded=1;whiteSpace=wrap;html=1;fontFamily=Helvetica;fontSize=11;fontColor=default;labelBackgroundColor=default;align=right;" vertex="1" parent="1">
          <mxGeometry x="520" y="-1964.75" width="100" height="80" as="geometry" />
        </mxCell>
        <mxCell id="GNJ3JSqXb4C92IdO4Sq5-50" style="edgeStyle=orthogonalEdgeStyle;shape=connector;curved=0;rounded=1;orthogonalLoop=1;jettySize=auto;html=1;exitX=0.5;exitY=1;exitDx=0;exitDy=0;entryX=0.5;entryY=0;entryDx=0;entryDy=0;strokeColor=default;align=center;verticalAlign=middle;fontFamily=Helvetica;fontSize=11;fontColor=default;labelBackgroundColor=default;endArrow=none;endFill=0;" edge="1" parent="1" source="GNJ3JSqXb4C92IdO4Sq5-46" target="GNJ3JSqXb4C92IdO4Sq5-48">
          <mxGeometry relative="1" as="geometry" />
        </mxCell>
        <mxCell id="GNJ3JSqXb4C92IdO4Sq5-60" style="edgeStyle=orthogonalEdgeStyle;shape=connector;curved=0;rounded=1;orthogonalLoop=1;jettySize=auto;html=1;entryX=0.5;entryY=0;entryDx=0;entryDy=0;strokeColor=default;align=center;verticalAlign=middle;fontFamily=Helvetica;fontSize=11;fontColor=default;labelBackgroundColor=default;endArrow=none;endFill=0;" edge="1" parent="1" source="GNJ3JSqXb4C92IdO4Sq5-46" target="GNJ3JSqXb4C92IdO4Sq5-47">
          <mxGeometry relative="1" as="geometry" />
        </mxCell>
        <mxCell id="GNJ3JSqXb4C92IdO4Sq5-46" value="M1" style="rounded=1;whiteSpace=wrap;html=1;fontFamily=Helvetica;fontSize=11;fontColor=default;labelBackgroundColor=default;verticalAlign=top;" vertex="1" parent="1">
          <mxGeometry x="420" y="-2020" width="80" height="50.5" as="geometry" />
        </mxCell>
        <mxCell id="GNJ3JSqXb4C92IdO4Sq5-1" style="edgeStyle=orthogonalEdgeStyle;rounded=1;orthogonalLoop=1;jettySize=auto;html=1;exitX=1;exitY=0.5;exitDx=0;exitDy=0;entryX=0;entryY=0.5;entryDx=0;entryDy=0;curved=0;endArrow=none;startFill=0;" edge="1" parent="1" source="GNJ3JSqXb4C92IdO4Sq5-2" target="GNJ3JSqXb4C92IdO4Sq5-6">
          <mxGeometry relative="1" as="geometry" />
        </mxCell>
        <mxCell id="GNJ3JSqXb4C92IdO4Sq5-2" value="1" style="ellipse;whiteSpace=wrap;html=1;aspect=fixed;shadow=0;" vertex="1" parent="1">
          <mxGeometry x="200" y="-2000" width="20" height="20" as="geometry" />
        </mxCell>
        <mxCell id="GNJ3JSqXb4C92IdO4Sq5-3" style="edgeStyle=orthogonalEdgeStyle;shape=connector;curved=0;rounded=1;orthogonalLoop=1;jettySize=auto;html=1;exitX=0.5;exitY=1;exitDx=0;exitDy=0;entryX=0.5;entryY=0;entryDx=0;entryDy=0;strokeColor=default;align=center;verticalAlign=middle;fontFamily=Helvetica;fontSize=11;fontColor=default;labelBackgroundColor=default;startFill=0;endArrow=none;" edge="1" parent="1" source="GNJ3JSqXb4C92IdO4Sq5-6" target="GNJ3JSqXb4C92IdO4Sq5-10">
          <mxGeometry relative="1" as="geometry" />
        </mxCell>
        <mxCell id="GNJ3JSqXb4C92IdO4Sq5-4" style="shape=connector;rounded=0;orthogonalLoop=1;jettySize=auto;html=1;exitX=0;exitY=1;exitDx=0;exitDy=0;entryX=1;entryY=0;entryDx=0;entryDy=0;strokeColor=default;align=center;verticalAlign=middle;fontFamily=Helvetica;fontSize=11;fontColor=default;labelBackgroundColor=default;startFill=0;endArrow=none;" edge="1" parent="1" source="GNJ3JSqXb4C92IdO4Sq5-6" target="GNJ3JSqXb4C92IdO4Sq5-8">
          <mxGeometry relative="1" as="geometry" />
        </mxCell>
        <mxCell id="GNJ3JSqXb4C92IdO4Sq5-5" style="edgeStyle=orthogonalEdgeStyle;shape=connector;curved=0;rounded=1;orthogonalLoop=1;jettySize=auto;html=1;exitX=1;exitY=0.5;exitDx=0;exitDy=0;entryX=0.5;entryY=0;entryDx=0;entryDy=0;strokeColor=default;align=center;verticalAlign=middle;fontFamily=Helvetica;fontSize=11;fontColor=default;labelBackgroundColor=default;startFill=0;endArrow=none;" edge="1" parent="1" source="GNJ3JSqXb4C92IdO4Sq5-6" target="GNJ3JSqXb4C92IdO4Sq5-12">
          <mxGeometry relative="1" as="geometry" />
        </mxCell>
        <mxCell id="GNJ3JSqXb4C92IdO4Sq5-6" value="2" style="ellipse;whiteSpace=wrap;html=1;aspect=fixed;shadow=0;" vertex="1" parent="1">
          <mxGeometry x="240" y="-2000" width="20" height="20" as="geometry" />
        </mxCell>
        <mxCell id="GNJ3JSqXb4C92IdO4Sq5-7" style="edgeStyle=orthogonalEdgeStyle;shape=connector;curved=0;rounded=1;orthogonalLoop=1;jettySize=auto;html=1;exitX=1;exitY=0.5;exitDx=0;exitDy=0;entryX=0;entryY=0.5;entryDx=0;entryDy=0;strokeColor=default;align=center;verticalAlign=middle;fontFamily=Helvetica;fontSize=11;fontColor=default;labelBackgroundColor=default;startFill=0;endArrow=none;" edge="1" parent="1" source="GNJ3JSqXb4C92IdO4Sq5-8" target="GNJ3JSqXb4C92IdO4Sq5-10">
          <mxGeometry relative="1" as="geometry" />
        </mxCell>
        <mxCell id="GNJ3JSqXb4C92IdO4Sq5-8" value="3" style="ellipse;whiteSpace=wrap;html=1;aspect=fixed;shadow=0;" vertex="1" parent="1">
          <mxGeometry x="200" y="-1960" width="20" height="20" as="geometry" />
        </mxCell>
        <mxCell id="GNJ3JSqXb4C92IdO4Sq5-9" style="edgeStyle=orthogonalEdgeStyle;shape=connector;curved=0;rounded=1;orthogonalLoop=1;jettySize=auto;html=1;exitX=1;exitY=0.5;exitDx=0;exitDy=0;entryX=0;entryY=0.5;entryDx=0;entryDy=0;strokeColor=default;align=center;verticalAlign=middle;fontFamily=Helvetica;fontSize=11;fontColor=default;labelBackgroundColor=default;startFill=0;endArrow=none;" edge="1" parent="1" source="GNJ3JSqXb4C92IdO4Sq5-10" target="GNJ3JSqXb4C92IdO4Sq5-12">
          <mxGeometry relative="1" as="geometry" />
        </mxCell>
        <mxCell id="GNJ3JSqXb4C92IdO4Sq5-10" value="4" style="ellipse;whiteSpace=wrap;html=1;aspect=fixed;shadow=0;" vertex="1" parent="1">
          <mxGeometry x="240" y="-1960" width="20" height="20" as="geometry" />
        </mxCell>
        <mxCell id="GNJ3JSqXb4C92IdO4Sq5-11" style="shape=connector;rounded=1;orthogonalLoop=1;jettySize=auto;html=1;exitX=0;exitY=0;exitDx=0;exitDy=0;entryX=1;entryY=1;entryDx=0;entryDy=0;strokeColor=default;align=center;verticalAlign=middle;fontFamily=Helvetica;fontSize=11;fontColor=default;labelBackgroundColor=default;startFill=0;endArrow=none;" edge="1" parent="1" source="GNJ3JSqXb4C92IdO4Sq5-12" target="GNJ3JSqXb4C92IdO4Sq5-2">
          <mxGeometry relative="1" as="geometry" />
        </mxCell>
        <mxCell id="GNJ3JSqXb4C92IdO4Sq5-17" style="edgeStyle=orthogonalEdgeStyle;shape=connector;curved=0;rounded=1;orthogonalLoop=1;jettySize=auto;html=1;exitX=0.5;exitY=1;exitDx=0;exitDy=0;entryX=0.5;entryY=0;entryDx=0;entryDy=0;strokeColor=default;align=center;verticalAlign=middle;fontFamily=Helvetica;fontSize=11;fontColor=default;labelBackgroundColor=default;endArrow=none;endFill=0;" edge="1" parent="1" source="GNJ3JSqXb4C92IdO4Sq5-12" target="GNJ3JSqXb4C92IdO4Sq5-15">
          <mxGeometry relative="1" as="geometry" />
        </mxCell>
        <mxCell id="GNJ3JSqXb4C92IdO4Sq5-21" style="edgeStyle=orthogonalEdgeStyle;shape=connector;curved=0;rounded=1;orthogonalLoop=1;jettySize=auto;html=1;exitX=1;exitY=0.5;exitDx=0;exitDy=0;entryX=0;entryY=0.5;entryDx=0;entryDy=0;strokeColor=default;align=center;verticalAlign=middle;fontFamily=Helvetica;fontSize=11;fontColor=default;labelBackgroundColor=default;endArrow=none;endFill=0;" edge="1" parent="1" source="GNJ3JSqXb4C92IdO4Sq5-12" target="GNJ3JSqXb4C92IdO4Sq5-13">
          <mxGeometry relative="1" as="geometry" />
        </mxCell>
        <mxCell id="GNJ3JSqXb4C92IdO4Sq5-12" value="5" style="ellipse;whiteSpace=wrap;html=1;aspect=fixed;shadow=0;" vertex="1" parent="1">
          <mxGeometry x="280" y="-1960" width="20" height="20" as="geometry" />
        </mxCell>
        <mxCell id="GNJ3JSqXb4C92IdO4Sq5-13" value="6" style="ellipse;whiteSpace=wrap;html=1;aspect=fixed;shadow=0;" vertex="1" parent="1">
          <mxGeometry x="320" y="-1960" width="20" height="20" as="geometry" />
        </mxCell>
        <mxCell id="GNJ3JSqXb4C92IdO4Sq5-14" value="8" style="ellipse;whiteSpace=wrap;html=1;aspect=fixed;shadow=0;" vertex="1" parent="1">
          <mxGeometry x="320" y="-1919" width="20" height="20" as="geometry" />
        </mxCell>
        <mxCell id="GNJ3JSqXb4C92IdO4Sq5-16" style="edgeStyle=orthogonalEdgeStyle;rounded=1;orthogonalLoop=1;jettySize=auto;html=1;entryX=0.5;entryY=1;entryDx=0;entryDy=0;endArrow=none;endFill=0;curved=0;" edge="1" parent="1" source="GNJ3JSqXb4C92IdO4Sq5-15" target="GNJ3JSqXb4C92IdO4Sq5-8">
          <mxGeometry relative="1" as="geometry" />
        </mxCell>
        <mxCell id="GNJ3JSqXb4C92IdO4Sq5-23" style="edgeStyle=orthogonalEdgeStyle;shape=connector;curved=0;rounded=1;orthogonalLoop=1;jettySize=auto;html=1;exitX=1;exitY=0.5;exitDx=0;exitDy=0;entryX=0;entryY=0.5;entryDx=0;entryDy=0;strokeColor=default;align=center;verticalAlign=middle;fontFamily=Helvetica;fontSize=11;fontColor=default;labelBackgroundColor=default;endArrow=none;endFill=0;" edge="1" parent="1" source="GNJ3JSqXb4C92IdO4Sq5-15" target="GNJ3JSqXb4C92IdO4Sq5-14">
          <mxGeometry relative="1" as="geometry" />
        </mxCell>
        <mxCell id="GNJ3JSqXb4C92IdO4Sq5-15" value="7" style="ellipse;whiteSpace=wrap;html=1;aspect=fixed;shadow=0;" vertex="1" parent="1">
          <mxGeometry x="280" y="-1919" width="20" height="20" as="geometry" />
        </mxCell>
        <mxCell id="GNJ3JSqXb4C92IdO4Sq5-20" style="shape=connector;rounded=1;orthogonalLoop=1;jettySize=auto;html=1;exitX=0;exitY=0;exitDx=0;exitDy=0;entryX=1;entryY=1;entryDx=0;entryDy=0;strokeColor=default;align=center;verticalAlign=middle;fontFamily=Helvetica;fontSize=11;fontColor=default;labelBackgroundColor=default;startFill=0;endArrow=none;" edge="1" parent="1" source="GNJ3JSqXb4C92IdO4Sq5-14" target="GNJ3JSqXb4C92IdO4Sq5-12">
          <mxGeometry relative="1" as="geometry">
            <mxPoint x="366" y="-1973" as="sourcePoint" />
            <mxPoint x="300" y="-1999" as="targetPoint" />
          </mxGeometry>
        </mxCell>
        <mxCell id="GNJ3JSqXb4C92IdO4Sq5-22" style="shape=connector;rounded=1;orthogonalLoop=1;jettySize=auto;html=1;exitX=0;exitY=0;exitDx=0;exitDy=0;entryX=1;entryY=1;entryDx=0;entryDy=0;strokeColor=default;align=center;verticalAlign=middle;fontFamily=Helvetica;fontSize=11;fontColor=default;labelBackgroundColor=default;startFill=0;endArrow=none;" edge="1" parent="1" source="GNJ3JSqXb4C92IdO4Sq5-15" target="GNJ3JSqXb4C92IdO4Sq5-10">
          <mxGeometry relative="1" as="geometry">
            <mxPoint x="346" y="-1872" as="sourcePoint" />
            <mxPoint x="320" y="-1899" as="targetPoint" />
          </mxGeometry>
        </mxCell>
        <mxCell id="GNJ3JSqXb4C92IdO4Sq5-49" style="edgeStyle=orthogonalEdgeStyle;shape=connector;curved=0;rounded=1;orthogonalLoop=1;jettySize=auto;html=1;exitX=1;exitY=0.5;exitDx=0;exitDy=0;entryX=0;entryY=0.5;entryDx=0;entryDy=0;strokeColor=default;align=center;verticalAlign=middle;fontFamily=Helvetica;fontSize=11;fontColor=default;labelBackgroundColor=default;endArrow=none;endFill=0;" edge="1" parent="1" source="GNJ3JSqXb4C92IdO4Sq5-25" target="GNJ3JSqXb4C92IdO4Sq5-29">
          <mxGeometry relative="1" as="geometry" />
        </mxCell>
        <mxCell id="GNJ3JSqXb4C92IdO4Sq5-25" value="1" style="ellipse;whiteSpace=wrap;html=1;aspect=fixed;shadow=0;" vertex="1" parent="1">
          <mxGeometry x="430" y="-2000" width="20" height="20" as="geometry" />
        </mxCell>
        <mxCell id="GNJ3JSqXb4C92IdO4Sq5-29" value="2" style="ellipse;whiteSpace=wrap;html=1;aspect=fixed;shadow=0;" vertex="1" parent="1">
          <mxGeometry x="470" y="-2000" width="20" height="20" as="geometry" />
        </mxCell>
        <mxCell id="GNJ3JSqXb4C92IdO4Sq5-51" style="edgeStyle=orthogonalEdgeStyle;shape=connector;curved=0;rounded=1;orthogonalLoop=1;jettySize=auto;html=1;exitX=1;exitY=0.5;exitDx=0;exitDy=0;entryX=0;entryY=0.5;entryDx=0;entryDy=0;strokeColor=default;align=center;verticalAlign=middle;fontFamily=Helvetica;fontSize=11;fontColor=default;labelBackgroundColor=default;endArrow=none;endFill=0;" edge="1" parent="1" source="GNJ3JSqXb4C92IdO4Sq5-31" target="GNJ3JSqXb4C92IdO4Sq5-33">
          <mxGeometry relative="1" as="geometry" />
        </mxCell>
        <mxCell id="GNJ3JSqXb4C92IdO4Sq5-31" value="3" style="ellipse;whiteSpace=wrap;html=1;aspect=fixed;shadow=0;" vertex="1" parent="1">
          <mxGeometry x="430" y="-1939.5" width="20" height="20" as="geometry" />
        </mxCell>
        <mxCell id="GNJ3JSqXb4C92IdO4Sq5-33" value="4" style="ellipse;whiteSpace=wrap;html=1;aspect=fixed;shadow=0;" vertex="1" parent="1">
          <mxGeometry x="470" y="-1939.5" width="20" height="20" as="geometry" />
        </mxCell>
        <mxCell id="GNJ3JSqXb4C92IdO4Sq5-52" style="edgeStyle=orthogonalEdgeStyle;shape=connector;curved=0;rounded=1;orthogonalLoop=1;jettySize=auto;html=1;exitX=1;exitY=0.5;exitDx=0;exitDy=0;entryX=0;entryY=0.5;entryDx=0;entryDy=0;strokeColor=default;align=center;verticalAlign=middle;fontFamily=Helvetica;fontSize=11;fontColor=default;labelBackgroundColor=default;endArrow=none;endFill=0;" edge="1" parent="1" source="GNJ3JSqXb4C92IdO4Sq5-37" target="GNJ3JSqXb4C92IdO4Sq5-38">
          <mxGeometry relative="1" as="geometry" />
        </mxCell>
        <mxCell id="GNJ3JSqXb4C92IdO4Sq5-53" style="edgeStyle=orthogonalEdgeStyle;shape=connector;curved=0;rounded=1;orthogonalLoop=1;jettySize=auto;html=1;exitX=0.5;exitY=1;exitDx=0;exitDy=0;entryX=0.5;entryY=0;entryDx=0;entryDy=0;strokeColor=default;align=center;verticalAlign=middle;fontFamily=Helvetica;fontSize=11;fontColor=default;labelBackgroundColor=default;endArrow=none;endFill=0;" edge="1" parent="1" source="GNJ3JSqXb4C92IdO4Sq5-37" target="GNJ3JSqXb4C92IdO4Sq5-42">
          <mxGeometry relative="1" as="geometry" />
        </mxCell>
        <mxCell id="GNJ3JSqXb4C92IdO4Sq5-37" value="5" style="ellipse;whiteSpace=wrap;html=1;aspect=fixed;shadow=0;" vertex="1" parent="1">
          <mxGeometry x="530" y="-1954.75" width="20" height="20" as="geometry" />
        </mxCell>
        <mxCell id="GNJ3JSqXb4C92IdO4Sq5-38" value="6" style="ellipse;whiteSpace=wrap;html=1;aspect=fixed;shadow=0;" vertex="1" parent="1">
          <mxGeometry x="570" y="-1954.75" width="20" height="20" as="geometry" />
        </mxCell>
        <mxCell id="GNJ3JSqXb4C92IdO4Sq5-39" value="8" style="ellipse;whiteSpace=wrap;html=1;aspect=fixed;shadow=0;" vertex="1" parent="1">
          <mxGeometry x="570" y="-1913.75" width="20" height="20" as="geometry" />
        </mxCell>
        <mxCell id="GNJ3JSqXb4C92IdO4Sq5-57" style="edgeStyle=orthogonalEdgeStyle;shape=connector;curved=0;rounded=1;orthogonalLoop=1;jettySize=auto;html=1;exitX=1;exitY=0.5;exitDx=0;exitDy=0;entryX=0;entryY=0.5;entryDx=0;entryDy=0;strokeColor=default;align=center;verticalAlign=middle;fontFamily=Helvetica;fontSize=11;fontColor=default;labelBackgroundColor=default;endArrow=none;endFill=0;" edge="1" parent="1" source="GNJ3JSqXb4C92IdO4Sq5-42" target="GNJ3JSqXb4C92IdO4Sq5-39">
          <mxGeometry relative="1" as="geometry" />
        </mxCell>
        <mxCell id="GNJ3JSqXb4C92IdO4Sq5-42" value="7" style="ellipse;whiteSpace=wrap;html=1;aspect=fixed;shadow=0;" vertex="1" parent="1">
          <mxGeometry x="530" y="-1913.75" width="20" height="20" as="geometry" />
        </mxCell>
        <mxCell id="GNJ3JSqXb4C92IdO4Sq5-59" style="shape=connector;rounded=1;orthogonalLoop=1;jettySize=auto;html=1;exitX=0;exitY=0;exitDx=0;exitDy=0;entryX=1;entryY=1;entryDx=0;entryDy=0;strokeColor=default;align=center;verticalAlign=middle;fontFamily=Helvetica;fontSize=11;fontColor=default;labelBackgroundColor=default;startFill=0;endArrow=none;" edge="1" parent="1" source="GNJ3JSqXb4C92IdO4Sq5-39" target="GNJ3JSqXb4C92IdO4Sq5-37">
          <mxGeometry relative="1" as="geometry">
            <mxPoint x="480" y="-1857.75" as="sourcePoint" />
            <mxPoint x="454" y="-1884.75" as="targetPoint" />
          </mxGeometry>
        </mxCell>
        <mxCell id="GNJ3JSqXb4C92IdO4Sq5-61" value="" style="shape=flexArrow;endArrow=classic;html=1;rounded=1;strokeColor=default;align=center;verticalAlign=middle;fontFamily=Helvetica;fontSize=11;fontColor=default;labelBackgroundColor=default;edgeStyle=orthogonalEdgeStyle;curved=0;" edge="1" parent="1">
          <mxGeometry width="50" height="50" relative="1" as="geometry">
            <mxPoint x="350" y="-1950.01" as="sourcePoint" />
            <mxPoint x="410" y="-1949" as="targetPoint" />
          </mxGeometry>
        </mxCell>
      </root>
    </mxGraphModel>
  </diagram>
</mxfile>
